<svg width="15" height="21" viewBox="0 0 15 21" fill="none" xmlns="http://www.w3.org/2000/svg">
<path d="M2.22727 8.27273L4.31818 11.8409L6.40909 8.27273H7.95455L5.13636 12.6364L7.95455 17H6.40909L4.31818 13.6136L2.22727 17H0.681818L3.45455 12.6364L0.681818 8.27273H2.22727Z" fill="#023047"/>
<path d="M10.6023 8V7.48864L12.5227 5.38636C12.7481 5.14015 12.9337 4.92614 13.0795 4.74432C13.2254 4.56061 13.3333 4.38826 13.4034 4.22727C13.4754 4.06439 13.5114 3.89394 13.5114 3.71591C13.5114 3.51136 13.4621 3.33428 13.3636 3.18466C13.267 3.03504 13.1345 2.91951 12.9659 2.83807C12.7973 2.75663 12.608 2.71591 12.3977 2.71591C12.1742 2.71591 11.9792 2.76231 11.8125 2.85511C11.6477 2.94602 11.5199 3.07386 11.429 3.23864C11.34 3.40341 11.2955 3.59659 11.2955 3.81818H10.625C10.625 3.47727 10.7036 3.17803 10.8608 2.92045C11.018 2.66288 11.232 2.46212 11.5028 2.31818C11.7756 2.17424 12.0814 2.10227 12.4205 2.10227C12.7614 2.10227 13.0634 2.17424 13.3267 2.31818C13.59 2.46212 13.7964 2.65625 13.946 2.90057C14.0956 3.14489 14.1705 3.41667 14.1705 3.71591C14.1705 3.92992 14.1316 4.1392 14.054 4.34375C13.9782 4.5464 13.8456 4.77273 13.6562 5.02273C13.4688 5.27083 13.2083 5.57386 12.875 5.93182L11.5682 7.32955V7.375H14.2727V8H10.6023Z" fill="#023047"/>
</svg>
