<svg width="21" height="19" viewBox="0 0 21 19" fill="none" xmlns="http://www.w3.org/2000/svg">
<path d="M12.2273 6.27273L14.3182 9.84091L16.4091 6.27273H17.9545L15.1364 10.6364L17.9545 15H16.4091L14.3182 11.6136L12.2273 15H10.6818L13.4545 10.6364L10.6818 6.27273H12.2273Z" fill="#023047"/>
<path d="M0.602273 9V8.48864L2.52273 6.38636C2.74811 6.14015 2.93371 5.92614 3.07955 5.74432C3.22538 5.56061 3.33333 5.38826 3.40341 5.22727C3.47538 5.06439 3.51136 4.89394 3.51136 4.71591C3.51136 4.51136 3.46212 4.33428 3.36364 4.18466C3.26705 4.03504 3.13447 3.91951 2.96591 3.83807C2.79735 3.75663 2.60795 3.71591 2.39773 3.71591C2.17424 3.71591 1.97917 3.76231 1.8125 3.85511C1.64773 3.94602 1.51989 4.07386 1.42898 4.23864C1.33996 4.40341 1.29545 4.59659 1.29545 4.81818H0.625C0.625 4.47727 0.703598 4.17803 0.860795 3.92045C1.01799 3.66288 1.23201 3.46212 1.50284 3.31818C1.77557 3.17424 2.08144 3.10227 2.42045 3.10227C2.76136 3.10227 3.06345 3.17424 3.3267 3.31818C3.58996 3.46212 3.7964 3.65625 3.94602 3.90057C4.09564 4.14489 4.17045 4.41667 4.17045 4.71591C4.17045 4.92992 4.13163 5.1392 4.05398 5.34375C3.97822 5.5464 3.84564 5.77273 3.65625 6.02273C3.46875 6.27083 3.20833 6.57386 2.875 6.93182L1.56818 8.32955V8.375H4.27273V9H0.602273Z" fill="#023047"/>
<path d="M21 3H8.45395C8.19646 3 7.98108 3.19555 7.95627 3.45184L6.72695 16.1548C6.67493 16.6924 5.92571 16.7771 5.75493 16.2648L4.11396 11.3419C4.0459 11.1377 3.85484 11 3.63962 11H0" stroke="#023047"/>
</svg>
